<svg xmlns='http://www.w3.org/2000/svg' viewBox="0 0 200 53.448" aria-labelledby="Svg-logo-footer" role="img"><title id="Svg-logo-footer">\o/ Gandi.net</title><path d="M2.735.563C3.098.2 3.58 0 4.095 0c.513 0 .995.2 1.358.563.364.363.563.846.563 1.36 0 .513-.2.995-.562 1.358-.364.37-.846.57-1.36.57-.513 0-.996-.2-1.36-.56-.362-.36-.562-.84-.562-1.36 0-.51.2-.99.563-1.36zm.96 1.76c.106.105.25.164.4.164.15 0 .292-.06.4-.166.105-.1.164-.24.164-.39 0-.15-.06-.29-.17-.4-.11-.1-.25-.16-.4-.16-.15 0-.3.06-.4.17-.11.11-.17.25-.17.4 0 .15.06.29.16.4zm3.073.966c.266-.38.785-.47 1.16-.2.376.26.465.78.2 1.16-.485.68-1.06 1.21-1.716 1.57-.368.24-.788.47-1.23.71-.383.2-.78.42-1.15.65-.87.54-1.37 1.04-1.566 1.57-.264.7-.145 1.29 0 1.66.194.49.55.89.997 1.11.45.23 1.075.21 1.632-.04.514-.237.858-.62.897-1.01.04-.4-.133-.62-.308-.7-.204-.09-.438 0-.64.26-.286.36-.81.42-1.17.14-.362-.29-.424-.81-.14-1.17.684-.87 1.717-1.16 2.632-.75.884.393 1.388 1.33 1.284 2.38-.1 1-.8 1.88-1.87 2.363-1.023.46-2.172.46-3.074-.004-.81-.413-1.446-1.12-1.79-1.988-.356-.9-.36-1.916-.01-2.856.336-.905 1.04-1.56 1.69-2.03-.157-.056-.31-.118-.46-.187C1.368 5.6.7 5.026.152 4.253c-.266-.377-.177-.897.2-1.16.374-.27.894-.18 1.16.196.384.54.816.92 1.322 1.15.384.18.812.27 1.306.282.495-.015.922-.11 1.306-.287.036-.017.073-.034.108-.053.04-.02.078-.04.116-.062.41-.235.772-.577 1.098-1.04z"></path><path d="M16.794 4.323c0-.204-.05-.35-.1-.43h-1.51c-.213-.056-.464-.09-.627-.09-1.232 0-2.087.622-2.087 2.126 0 .72.19 1.34.767 1.68-.365.27-.78.73-.792 1.03-.013.29.276.49.754.62-.53.31-.95.77-.95 1.31 0 .59.32 1.29 2.02 1.29 1.67 0 2.4-.89 2.4-1.86 0-.9-.76-1.22-1.56-1.33-.94-.118-1.58-.15-1.58-.34 0-.16.16-.35.32-.51.16.03.35.042.56.042 1.46 0 2.033-.78 2.033-1.98 0-.565-.19-.995-.49-1.277.175.033.326.055.464.055.217 0 .355-.114.355-.36zM13.978 9.39c.076.012.15.023.24.023 1.106.068 1.432.215 1.432.724 0 .396-.39.87-1.282.87-.855 0-1.056-.282-1.056-.644 0-.362.302-.735.666-.972zm.503-2.205c-.77 0-.93-.51-.93-1.323 0-.996.43-1.38.97-1.38.61 0 .92.35.92 1.176 0 .984-.29 1.527-.95 1.527zm5.31-3.382c-1.17 0-2.01.147-2.2.27-.09.058-.11.17-.11.295 0 .08.01.396.14.59.39-.16 1.21-.262 1.78-.262.39 0 .665.136.665.668v.95c-.252-.113-.64-.147-.955-.147-.805 0-1.634.283-1.634 1.855 0 1.72.88 1.787 1.8 1.776.816 0 1.407-.182 1.746-.373 0 0 .08-1.607.08-3.586v-.66c0-1.02-.478-1.38-1.295-1.38zm.23 5.045c-.11.112-.42.18-.68.18-.49 0-.8-.045-.8-1.018 0-.995.43-1.153.93-1.153.18 0 .43.022.59.102 0 .81-.03 1.88-.03 1.88z" fillrule="evenodd" cliprule="evenodd"></path><path d="M22.417 4.176c.49-.204 1.395-.373 2.074-.373 1.53 0 1.69.52 1.69 2.08v3.552c0 .193.01.193-1.05.193v-3.79c0-.893-.07-1.232-.74-1.232-.27 0-.66.057-.94.215v4.62c0 .2.03.2-1.02.2V4.18z"></path><path d="M30.056 1.733V4.03c-.214-.137-.503-.227-.893-.227-1.08 0-1.935.96-1.935 3.2 0 2.455.855 2.794 2.048 2.794.78 0 1.37-.113 1.798-.34V1.315c-.83 0-1.018 0-1.018.42zm0 7.07c-.2.124-.465.168-.742.168-.59 0-.942-.24-.942-2.06 0-1.85.553-2.29 1.106-2.29.263 0 .414.04.578.15v4.05z" fillrule="evenodd" cliprule="evenodd"></path><path d="M32.93 2.74c.378 0 .567-.272.58-.736 0-.475-.126-.656-.516-.656-.402 0-.578.272-.578.68-.013.53.19.7.515.712zm-.5 1.65v5.24c1.03 0 1.042 0 1.042-.193V3.972c-.83 0-1.043 0-1.043.42zm2.46 4.695c0 .396.158.645.633.645.395 0 .633-.295.633-.645 0-.396-.17-.656-.633-.656-.408 0-.634.3-.634.65zm2.555-4.91c.49-.203 1.396-.372 2.074-.372 1.52 0 1.68.52 1.68 2.08v3.552c0 .193.01.193-1.06.193v-3.79c0-.893-.08-1.232-.74-1.232-.28 0-.67.057-.95.215v4.62c0 .2.02.2-1.02.2V4.18z"></path><path d="M44.367 8.904c-.68 0-1.03-.204-1.068-1.572.6 0 1.75-.023 2.62-.18.1-.408.14-.985.14-1.494 0-1.21-.54-1.855-1.6-1.855-1.12 0-2.23.35-2.23 3.29 0 2.31.84 2.704 2.01 2.704.94 0 1.73-.27 1.73-.43 0-.248-.03-.644-.09-.814-.43.215-.93.35-1.538.35zm-.013-4.298c.54 0 .704.34.717 1.154 0 .214-.01.497-.06.7-.44.114-1.22.136-1.71.125.08-1.572.54-1.98 1.06-1.98z" fillrule="evenodd" cliprule="evenodd"></path><path d="M47.7 8.022c0 1.018 0 1.787 1.193 1.787.49 0 1.08-.1 1.08-.37 0-.23-.037-.48-.075-.6-.263.1-.377.17-.73.17-.45 0-.45-.41-.45-.9V4.76h1.08c.2 0 .2-.077.2-.79h-1.28V1.936c-.83 0-1.02 0-1.02.317v1.72h-.64c-.214 0-.226.09-.226.79h.867v3.26z"></path></svg>
